<svg width="24" height="25" viewBox="0 0 24 25" fill="none" xmlns="http://www.w3.org/2000/svg">
<circle cx="12" cy="12.4464" r="11" stroke="#D6D9DD" stroke-width="2"/>
<path fill-rule="evenodd" clip-rule="evenodd" d="M19.1999 9.04966C18.7166 9.24699 18.209 9.37526 17.6916 9.43085C18.2337 9.13088 18.6501 8.65625 18.8462 8.09036C18.3241 8.37557 17.7612 8.57409 17.1784 8.67852C16.6998 8.20782 16.0171 7.91309 15.2618 7.91309C13.8115 7.91309 12.6356 8.99858 12.6356 10.3364C12.6356 10.5264 12.659 10.7115 12.7038 10.8888C10.5212 10.7879 8.58587 9.82296 7.29108 8.35671C7.05946 8.71891 6.9358 9.14237 6.93521 9.57538C6.93521 10.4159 7.39891 11.1578 8.10384 11.5922C7.69048 11.5815 7.28445 11.4781 6.91432 11.2892L6.9139 11.3198C6.9139 12.4935 7.81914 13.4728 9.02059 13.6955C8.63232 13.7936 8.22838 13.8077 7.83448 13.737C8.16905 14.7002 9.13865 15.4015 10.2877 15.4207C9.38883 16.0709 8.25642 16.4586 7.02599 16.4586C6.81417 16.4586 6.6049 16.4464 6.3999 16.4241C7.56214 17.1122 8.94217 17.5131 10.4253 17.5131C15.2559 17.5131 17.897 13.82 17.897 10.6176C17.897 10.5128 17.8949 10.4076 17.8898 10.3033C18.3959 9.96875 18.8396 9.5442 19.1999 9.04966Z" fill="#D6D9DD"/>
</svg>
