<svg width="23" height="23" viewBox="0 0 23 23" fill="none" xmlns="http://www.w3.org/2000/svg">
<path fill-rule="evenodd" clip-rule="evenodd" d="M20.0709 2.6318C16.3886 -0.738754 10.6314 -0.489168 7.20244 3.13173C5.67918 4.73768 4.81607 6.85807 4.78472 9.07131C4.75338 11.2845 5.55609 13.4285 7.03327 15.077L0.427203 21.2104C0.367194 21.2663 0.319336 21.3339 0.286612 21.4091C0.253888 21.4843 0.237 21.5654 0.237 21.6474C0.237 21.7294 0.253888 21.8105 0.286612 21.8857C0.319336 21.9608 0.367194 22.0285 0.427203 22.0843C0.554651 22.2095 0.724583 22.2505 0.893755 22.2505C1.06293 22.2505 1.2321 22.2095 1.35879 22.0843L7.92238 15.9509C9.58523 17.3744 11.7022 18.1566 13.8912 18.1562H14.2295C16.642 18.0735 18.886 17.0327 20.5792 15.2848C21.3882 14.4311 22.0185 13.4244 22.4329 12.3237C22.8473 11.2229 23.0375 10.0505 22.9924 8.87524C22.9074 6.50304 21.8491 4.25524 20.0709 2.6318ZM19.6476 14.4109C18.2194 15.9131 16.2586 16.7948 14.1871 16.8666C12.1155 16.9516 10.0935 16.219 8.55734 14.8266C5.38251 11.9552 5.21334 7.04393 8.13403 3.96393C9.6581 2.34049 11.7747 1.50828 13.8912 1.50828C15.7961 1.50828 17.701 2.17359 19.2243 3.54745C20.7484 4.96304 21.6375 6.83607 21.7224 8.91697C21.769 9.92575 21.609 10.9334 21.2523 11.8781C20.8955 12.8229 20.3494 13.6848 19.6476 14.4109Z" fill="white"/>
</svg>
