<svg width="20" height="22" viewBox="0 0 20 22" fill="none" xmlns="http://www.w3.org/2000/svg">
    <path d="M18.8801 15.5671C18.0499 14.6751 16.4966 13.3332 16.4966 8.9375C16.4966 5.59883 14.1557 2.92617 10.9992 2.27047V1.375C10.9992 0.615742 10.3839 0 9.62503 0C8.8662 0 8.25089 0.615742 8.25089 1.375V2.27047C5.0944 2.92617 2.75347 5.59883 2.75347 8.9375C2.75347 13.3332 1.20015 14.6751 0.369991 15.5671C0.112178 15.8443 -0.00211873 16.1756 2.97081e-05 16.5C0.00475627 17.2047 0.557764 17.875 1.37933 17.875H17.8707C18.6923 17.875 19.2457 17.2047 19.25 16.5C19.2522 16.1756 19.1379 15.8439 18.8801 15.5671ZM2.90171 15.8125C3.81351 14.6107 4.81038 12.6186 4.81511 8.96242C4.81511 8.95383 4.81253 8.94609 4.81253 8.9375C4.81253 6.27945 6.96698 4.125 9.62503 4.125C12.2831 4.125 14.4375 6.27945 14.4375 8.9375C14.4375 8.94609 14.435 8.95383 14.435 8.96242C14.4397 12.6191 15.4366 14.6111 16.3484 15.8125H2.90171ZM9.62503 22C11.1427 22 12.3737 20.7689 12.3737 19.25H6.87632C6.87632 20.7689 8.10737 22 9.62503 22Z" fill="white"/>
</svg>
